<svg width="348" height="395" viewBox="0 0 348 395" fill="none" xmlns="http://www.w3.org/2000/svg">
<path d="M107.596 102.697C84.0452 104.261 60.3984 103.569 36.979 100.63C25.0229 99.1264 10.1376 94.0868 10.8891 84.2726C11.5553 75.62 24.0237 71.4602 34.4084 69.4188C115.619 53.7534 198.679 50.0127 280.968 58.3148C294.794 59.707 309.662 61.8937 319.253 70.1021C323.267 73.5187 326.153 78.4558 324.377 82.9657C322.31 88.2529 315.025 90.7385 308.518 92.4383C265.856 103.477 221.918 108.802 177.855 108.274L107.596 102.697Z" fill="#153A23"/>
<path d="M120.125 48.9618C142.209 44.4775 164.661 39.9931 187.113 41.915C209.565 43.8368 232.375 53.1984 245.586 71.4773C260.156 91.6952 260.634 118.866 271.898 141.091C278.799 154.758 290.012 167.57 289.252 182.783C288.15 204.991 263.298 217.179 241.914 223.278C188.868 238.4 133.84 245.415 78.6971 244.085C72.7703 243.94 66.6471 243.65 61.301 241.079C51.8472 236.569 46.8086 225.559 46.5011 215.112C46.1937 204.666 49.7207 194.442 53.4271 184.627C69.5158 142.04 89.5287 101.04 113.207 62.1585" fill="#FAC7B7"/>
<path d="M130.125 66.3524C120.377 94.6131 116.438 124.552 118.545 154.373C119.561 168.74 122.174 183.517 129.86 195.168C134.616 202.341 141.258 208.063 149.056 211.704C156.853 215.344 165.503 216.763 174.055 215.804C190.708 213.746 205.952 202.488 215.167 187.036C228.634 164.452 229.224 135.548 227.413 108.582C225.791 84.6057 220.428 57.136 201.076 46.1259C185.857 37.4733 167.488 42.3591 150.997 47.4499L130.125 66.3524Z" fill="#B26D55"/>
<path d="M106.734 125.05C129.63 125.144 155.831 114.689 161.595 109.18C178.974 92.5836 180.639 66.472 180.119 43.6489L125.778 54.9067L107.127 89.9271C107.127 89.9271 106.725 125.05 106.734 125.05Z" fill="#FAC7B7"/>
<path d="M172.347 54.0269C172.347 54.0269 191.067 101.407 239.813 110.88L232.127 82.4533L215.449 54.0269H172.347Z" fill="#FAC7B7"/>
<path d="M6.99488 394.46C-2.33084 364.427 10.112 320.276 32.1624 297.863C54.2127 275.45 84.4189 262.843 114.838 254.899C152.013 245.179 191.699 241.668 228.737 251.721C244.237 255.924 259.054 262.433 273.145 270.197C295.307 282.42 316.486 298.751 327.212 321.677C339.416 347.788 336.299 362.676 331.892 391.145" fill="#39B55D"/>
<path d="M196.046 106.831C195.419 106.732 194.777 106.838 194.215 107.134C193.654 107.429 193.202 107.898 192.929 108.471C192.792 108.761 192.655 109.043 192.544 109.325C192.177 110.29 192.211 111.614 193.134 112.093C193.518 112.258 193.937 112.331 194.355 112.306C198.674 112.409 202.969 112.982 207.165 114.014C209.306 114.529 211.418 115.156 213.493 115.893C214.014 116.081 215.927 117.158 216.414 116.978C217.268 116.654 216.849 115.082 216.491 114.535C215.941 113.822 215.241 113.239 214.441 112.827L214.227 112.69C209.97 110.088 205.244 108.347 200.316 107.565L196.046 106.831Z" fill="#FAC7B7"/>
<path d="M143.166 55.0177C126.291 56.1879 121.73 70.7256 115.752 84.3494C109.074 99.5534 97.2887 115.842 89.1842 130.32C81.2505 144.482 73.3766 158.755 67.3644 173.882C64.3524 181.345 61.931 189.034 60.1224 196.876C58.5596 203.829 58.8671 205.503 57.9277 212.669C56.8687 220.827 57.2188 230.376 65.3916 231.888C73.5645 233.4 88.1935 233.007 96.2126 234.083C97.7157 234.288 98.3733 231.982 96.8531 231.777C85.2302 230.222 65.9724 235.194 61.3607 220.28C59.2428 213.447 60.6434 205.896 62.0952 199.063C63.6495 191.708 79.4144 163.658 82.0703 156.628C92.9503 127.86 101.089 123.128 114.206 95.4279C121.039 80.9072 123.908 58.7675 143.166 57.4264C144.686 57.3239 144.703 54.9323 143.166 55.0348V55.0177Z" fill="white"/>
<path d="M130.971 228.531C123.549 227.848 111.2 225.849 104.309 223.013C98.2708 220.536 91.6267 217.034 88.185 211.217C82.3095 201.309 83.2745 185.729 91.174 177.128C92.2074 176 92.5746 173.25 91.5327 174.386C84.7007 181.826 81.0883 189.992 82.3009 199.763C83.1549 206.332 82.8475 212.755 86.3745 216.129C90.7043 220.28 99.5176 223.748 105.069 225.875C111.781 228.437 120.791 229.36 127.93 230.026C129.468 230.163 137.324 228.676 135.787 228.531H130.971Z" fill="white"/>
<path d="M106.35 160.438C102.823 170.03 98.8686 185.857 101.098 193.69C102.396 198.251 111.072 205.136 118.007 210.91C119.185 211.892 121.756 212.618 120.569 211.61C113.967 206.118 106.674 200.036 104.343 191.392C101.781 181.629 104.539 168.809 107.912 159.626C108.442 158.183 106.845 159.003 106.315 160.438H106.35Z" fill="white"/>
<path d="M113.361 115.048C121.901 113.784 130.006 110.657 137.897 107.181C145.181 103.969 156.873 98.537 162.663 92.9679C168.453 87.3988 169.785 77.9006 172.347 70.4011C175.165 62.3037 174.704 57.8279 174.764 49.2607C174.764 47.7232 173.056 43.5635 173.056 45.1095C173.056 69.1711 167.855 82.9828 156.078 93.7537C150.51 98.8787 143.507 102.099 136.667 105.114C128.981 108.531 121.064 111.512 112.703 112.742C111.183 112.964 111.849 115.304 113.335 115.048H113.361Z" fill="white"/>
<path d="M129.348 89.1413C131.389 81.582 140.766 73.9458 146.189 68.1973C152.073 61.9535 153.363 59.8437 160.528 55.1544C161.817 54.3002 160.622 52.2502 159.324 53.0958C151.637 58.1097 144.225 63.8924 138.059 70.6915C132.576 76.7389 129.092 83.1622 128.622 87.0913C128.434 88.6202 127.64 92.6177 128.622 92.9679L129.348 89.1413Z" fill="white"/>
<path d="M148.956 81.7699C156.471 72.2376 164.986 60.416 163.696 52.7286C163.448 51.2338 161.604 50.5761 161.39 52.0965C159.725 64.0547 151.877 76.0129 144.609 85.2378C143.67 86.4336 145.642 86.0322 146.59 84.8278L148.956 81.7699Z" fill="white"/>
<path d="M245.219 111.179C218.19 103.978 196.541 81.0182 190.922 53.634L189.769 55.1458C206.943 53.5656 222.033 64.4134 231.863 77.6358C243.17 92.8398 247.79 111.708 253.947 129.312C257.204 138.326 261.023 147.127 265.382 155.663C269.61 164.145 273.922 173.447 272.812 183.184C270.933 199.456 254.63 208.715 240.702 213.694C219.292 221.382 196.054 224.722 173.38 224.927C171.843 224.927 168.256 228.548 169.819 228.531C191.511 228.335 210.342 225.781 231.043 219.221C245.236 214.711 269.473 203.487 275.109 188.616C278.431 179.844 278.782 172.131 275.331 163.701C271.429 154.168 262.453 145.14 258.747 135.513C251.59 116.876 244.229 88.4836 239.105 82.4618C227.148 68.4365 209.214 50.9775 189.794 52.7627C189.612 52.7677 189.433 52.8134 189.271 52.8965C189.109 52.9796 188.967 53.098 188.857 53.243C188.746 53.388 188.669 53.5559 188.632 53.7344C188.595 53.9129 188.598 54.0975 188.641 54.2746C196.814 93.5146 216.824 106.088 244.613 113.493C244.917 113.571 245.239 113.526 245.51 113.368C245.781 113.211 245.979 112.953 246.062 112.651C246.145 112.348 246.105 112.026 245.953 111.752C245.8 111.478 245.546 111.275 245.245 111.187L245.219 111.179Z" fill="white"/>
<path d="M169.358 217.137C186.25 218.563 213.467 216.974 229.608 211.012C242.674 206.178 245.595 199.003 251.342 185.951C254.571 178.623 256.791 179.323 251.189 162.889C250.693 161.437 248.2 160.933 248.994 162.257C256.68 175.121 246.697 192.614 236.722 200.848C225.475 210.133 210.982 214.25 196.644 215.309C187.548 215.844 178.425 215.661 169.358 214.762C167.829 214.634 167.838 217.026 169.358 217.154V217.137Z" fill="white"/>
<path d="M260.805 190.752C267.731 181.723 265.169 175.573 262.675 164.76C259.754 152.093 252.205 141.083 245.27 130.32C244.416 129.03 242.367 130.226 243.204 131.525C249.78 141.732 256.868 152.024 260.011 163.983C262.82 174.6 263.546 183.304 257.491 194.254C256.748 195.595 256.347 197.91 257.269 196.705L260.805 190.752Z" fill="white"/>
<path d="M212.485 198.226C223.143 195.142 232.699 181.655 237.004 171.602C242.29 159.276 236.15 151.999 233.186 139.195C232.836 137.7 230.539 138.341 230.88 139.836C233.69 151.896 234.476 165.007 229.719 176.701C225.791 186.361 217.302 192.853 207.831 197.559C206.837 198.247 205.919 199.038 205.09 199.917L212.485 198.226Z" fill="white"/>
<path d="M207.933 73.6384C213.057 75.1673 216.935 78.9854 220.564 82.7437C224.322 86.6472 232.904 96.9227 236.073 101.313C242.256 109.855 242.179 113.092 245.894 122.966C246.432 124.392 248.746 123.769 248.2 122.325C244.251 111.747 238.841 101.773 232.127 92.6946C228.848 88.2872 229.053 86.3653 225.21 82.4447C221.512 78.6864 216.61 74.7573 211.452 73.1942C209.974 72.75 206.499 73.1942 207.968 73.6298L207.933 73.6384Z" fill="white"/>
<path d="M122.815 123.624C112.567 125.289 108.912 125.17 99.5433 129.91C92.8223 133.327 85.7597 138.255 84.6665 145.712C83.266 155.304 92.8906 163.299 102.404 165.153C111.918 167.006 121.764 164.914 131.44 165.699" fill="#B26D55"/>
<path d="M224.697 108.317C233.367 107.447 242.12 108.59 250.275 111.657C258.405 114.723 265.305 122.949 263.828 131.516C262.239 140.724 252.461 145.866 243.648 148.958C235.381 151.865 226.927 154.208 218.344 155.971" fill="#B26D55"/>
<path d="M151.655 212.003L158.683 248.672H180.195L187.984 201.19L151.655 212.003Z" fill="#B26D55"/>
<path d="M124.335 263.569C123.566 254.579 124.82 245.531 128.007 237.09C128.276 236.172 128.79 235.346 129.493 234.698C130.517 234.076 131.717 233.806 132.909 233.929C157.052 233.929 179.29 231.931 203.433 231.888C206.576 231.888 211.708 233.801 214.646 234.92C219.77 236.859 223.186 241.924 224.535 247.212C225.885 252.499 225.586 258.068 225.244 263.526" fill="#39B55D"/>
<path d="M130.612 179.955C130.467 180.09 130.276 180.164 130.078 180.164C129.88 180.164 129.69 180.09 129.544 179.955C127.093 177.803 124.25 176.129 121.705 174.079C118.972 171.866 116.495 169.031 115.88 165.537C114.727 159.046 121.363 154.655 126.752 158.823C128.222 160.054 129.505 161.493 130.561 163.094C130.582 163.133 130.616 163.163 130.657 163.179C130.699 163.195 130.744 163.195 130.786 163.181C130.828 163.167 130.863 163.138 130.886 163.101C130.909 163.063 130.918 163.018 130.911 162.975C130.83 162.054 130.934 161.126 131.217 160.246C131.501 159.366 131.957 158.551 132.559 157.85C134.6 155.407 138.913 153.331 142.192 153.938C146.812 154.792 146.701 160.113 145.437 163.615C143.9 167.835 139.562 171.55 136.376 174.523L130.612 179.955Z" fill="#F1673C"/>
<path d="M215.158 176.018C214.998 176.135 214.799 176.188 214.601 176.166C214.404 176.144 214.221 176.048 214.091 175.898C211.913 173.472 209.274 171.491 206.985 169.159C204.526 166.648 202.391 163.538 202.177 160.036C201.776 153.459 208.873 149.855 213.749 154.612C215.068 156.003 216.176 157.58 217.037 159.293C217.058 159.33 217.09 159.359 217.129 159.377C217.168 159.394 217.211 159.398 217.253 159.388C217.294 159.378 217.331 159.356 217.358 159.323C217.386 159.291 217.402 159.25 217.404 159.208C217.433 158.286 217.645 157.38 218.028 156.541C218.411 155.702 218.956 154.948 219.633 154.322C221.939 152.127 226.465 150.564 229.651 151.546C234.143 152.921 233.417 158.191 231.76 161.523C229.753 165.546 225.013 168.74 221.512 171.328L215.158 176.018Z" fill="#F1673C"/>
<path d="M185.029 188.531C189.089 186.834 192.759 184.323 195.811 181.153C198.863 177.983 201.233 174.22 202.775 170.098C202.891 169.871 202.954 169.621 202.961 169.366C202.967 169.111 202.917 168.858 202.812 168.625C202.708 168.393 202.554 168.186 202.359 168.021C202.165 167.856 201.936 167.737 201.69 167.671C201.444 167.606 201.186 167.597 200.935 167.644C200.685 167.692 200.448 167.795 200.243 167.945C200.037 168.096 199.868 168.291 199.748 168.516C199.627 168.741 199.559 168.989 199.547 169.244C198.194 172.82 196.136 176.087 193.495 178.852C190.855 181.616 187.685 183.822 184.175 185.336C183.752 185.462 183.394 185.746 183.176 186.13C182.957 186.514 182.896 186.967 183.005 187.395C183.13 187.818 183.415 188.176 183.799 188.395C184.182 188.613 184.635 188.674 185.063 188.565L185.029 188.531Z" fill="#010101"/>
<path d="M186.37 128.526C187.813 134.668 193.629 139.861 200.179 138.366C206.26 136.983 208.898 130.517 210.649 125.221L208.215 126.22L220.112 132.293C222.024 133.267 223.724 130.38 221.82 129.406L209.923 123.333C209.7 123.21 209.453 123.139 209.199 123.124C208.945 123.108 208.691 123.15 208.455 123.246C208.219 123.342 208.008 123.489 207.837 123.677C207.665 123.865 207.538 124.089 207.464 124.333C206.174 128.227 204.423 133.387 200.162 134.907C195.132 136.701 190.717 132.216 189.641 127.638C189.145 125.545 185.917 126.434 186.413 128.492L186.37 128.526Z" fill="#010101"/>
<path d="M205.764 132.456L206.183 132.772C206.405 132.942 206.234 132.814 206.114 132.712L206.396 132.934L207.421 133.788L209.787 135.744C211.273 136.983 212.75 138.247 214.313 139.383C214.699 139.597 215.153 139.654 215.579 139.541C216.006 139.428 216.372 139.154 216.602 138.776C216.817 138.391 216.874 137.938 216.763 137.512C216.652 137.085 216.38 136.718 216.004 136.487L215.577 136.18C215.355 136.009 215.534 136.137 215.654 136.231L215.363 136.009L214.338 135.155C213.544 134.506 212.759 133.848 211.973 133.19C210.487 131.96 209.018 130.696 207.447 129.56C207.062 129.345 206.609 129.287 206.182 129.399C205.755 129.51 205.388 129.782 205.158 130.158C204.944 130.544 204.887 130.998 205 131.425C205.113 131.851 205.387 132.218 205.764 132.447V132.456Z" fill="#010101"/>
<path d="M157.069 132.831C155.993 137.41 151.578 141.885 146.548 140.092C142.278 138.58 140.57 133.412 139.237 129.517C139.163 129.275 139.036 129.052 138.865 128.865C138.694 128.678 138.484 128.531 138.249 128.436C138.014 128.34 137.761 128.298 137.508 128.312C137.255 128.326 137.009 128.397 136.786 128.518L124.882 134.591C122.96 135.573 124.651 138.46 126.59 137.478L138.486 131.414L136.035 130.406C137.794 135.718 140.424 142.159 146.505 143.56C153.055 145.063 158.871 139.844 160.314 133.72C160.809 131.627 157.581 130.73 157.086 132.866L157.069 132.831Z" fill="#010101"/>
<path d="M139.212 134.77C137.649 135.906 136.18 137.171 134.694 138.409L132.328 140.365L131.304 141.219L131.047 141.416C130.945 141.493 131.398 141.151 131.09 141.416L130.663 141.732C130.287 141.962 130.015 142.329 129.904 142.756C129.793 143.183 129.85 143.636 130.065 144.021C130.296 144.397 130.663 144.669 131.089 144.78C131.516 144.892 131.969 144.834 132.354 144.619C133.917 143.483 135.394 142.219 136.872 140.989L139.246 139.024L140.271 138.17L140.518 137.973L140.937 137.666C141.24 137.404 141.441 137.045 141.506 136.65C141.571 136.255 141.495 135.85 141.292 135.505C141.088 135.16 140.771 134.898 140.393 134.763C140.016 134.629 139.604 134.632 139.229 134.77H139.212Z" fill="#010101"/>
<path d="M235.834 120.344C238.94 120.028 242.078 120.318 245.074 121.198C248.02 121.941 251.052 122.906 252.76 125.588C253.225 126.249 253.527 127.011 253.641 127.811C253.755 128.611 253.679 129.427 253.418 130.192C252.822 131.707 251.927 133.087 250.787 134.249C248.821 136.172 246.477 137.667 243.904 138.64C240.915 139.887 237.806 140.843 234.834 142.159C233.434 142.774 234.647 144.841 236.039 144.217C241.897 141.655 248.849 140.374 253.119 135.189C255.501 132.302 257.004 128.783 255.254 125.187C253.64 121.89 250.488 120.267 247.124 119.276C243.273 118.01 239.196 117.588 235.168 118.037C233.647 118.259 234.314 120.6 235.799 120.344H235.834Z" fill="#010101"/>
<path d="M237.96 134.096C238.893 133.866 239.794 133.522 240.642 133.071C241.803 132.53 242.898 131.856 243.904 131.063C244.392 130.736 244.806 130.31 245.119 129.812C245.432 129.315 245.638 128.758 245.723 128.176C245.8 126.596 244.365 125.674 243.084 125.153C241.21 124.509 239.249 124.154 237.268 124.102C236.953 124.104 236.651 124.231 236.429 124.455C236.206 124.679 236.081 124.982 236.081 125.298C236.092 125.606 236.218 125.898 236.435 126.117C236.652 126.335 236.944 126.464 237.251 126.476L238.268 126.562L238.848 126.622H239.07H239.352H239.523L239.865 126.673L240.428 126.775C240.832 126.851 241.231 126.948 241.624 127.066L242.136 127.237L242.333 127.314C242.085 127.22 242.392 127.314 242.427 127.314C242.461 127.314 242.726 127.467 242.862 127.544L243.067 127.681C242.965 127.57 243.349 127.843 243.067 127.681L243.281 127.886C243.443 128.031 243.135 127.638 243.229 127.818L243.289 127.911C243.204 127.638 243.443 128.142 243.289 127.911C243.289 127.647 243.375 128.185 243.289 127.911C243.285 127.96 243.285 128.008 243.289 128.057C243.289 128.057 243.375 127.741 243.289 127.877C243.255 127.95 243.232 128.028 243.221 128.108C243.178 128.304 243.366 127.843 243.221 128.014C243.221 128.014 243.178 128.091 243.161 128.134C243.144 128.176 243.05 128.304 242.99 128.398C242.93 128.492 243.187 128.168 243.033 128.339L242.93 128.458C242.862 128.544 242.785 128.62 242.717 128.697C242.649 128.774 242.316 129.047 242.119 129.227C242.059 129.27 241.957 129.372 242.187 129.176L242.008 129.304C241.906 129.381 241.803 129.457 241.692 129.526C241.581 129.594 241.214 129.842 240.975 129.987C240.505 130.269 240.027 130.525 239.54 130.764L238.754 131.132L238.626 131.183C238.695 131.183 238.985 131.072 238.626 131.183L238.285 131.311C237.944 131.449 237.593 131.557 237.234 131.636C237.081 131.675 236.938 131.745 236.812 131.84C236.686 131.936 236.58 132.055 236.501 132.192C236.422 132.329 236.37 132.48 236.349 132.636C236.329 132.793 236.339 132.952 236.38 133.105C236.466 133.41 236.668 133.67 236.942 133.829C237.216 133.989 237.541 134.035 237.849 133.959L237.96 134.096Z" fill="#010101"/>
<path d="M113.071 156.321C108.909 156.847 104.683 156.487 100.671 155.262C97.7926 154.407 92.1818 152.648 92.9845 148.676C93.3432 146.823 94.6925 145.259 95.9735 143.953C97.2771 142.631 98.7073 141.441 100.244 140.399C103.404 138.254 106.947 136.735 110.679 135.924C112.183 135.59 111.533 133.284 110.048 133.617C103.54 135.052 96.9813 138.623 92.8137 143.918C90.8153 146.481 89.5258 149.974 91.6608 152.853C93.625 155.492 97.4339 156.791 100.466 157.679C104.567 158.882 108.871 159.234 113.113 158.712C114.616 158.524 114.634 156.15 113.113 156.321H113.071Z" fill="#010101"/>
<path d="M108.109 140.997C106.497 141.174 104.926 141.622 103.463 142.321C102.058 142.952 100.808 143.882 99.7995 145.046C99.2932 145.657 98.9766 146.404 98.8886 147.193C98.8006 147.982 98.945 148.779 99.3041 149.488C99.6425 150.148 100.11 150.733 100.679 151.208C101.249 151.684 101.908 152.04 102.618 152.255C104.471 152.836 106.444 152.545 108.322 152.255C108.63 152.173 108.893 151.972 109.053 151.697C109.213 151.421 109.257 151.094 109.176 150.786C109.088 150.482 108.887 150.223 108.613 150.064C108.34 149.905 108.015 149.858 107.708 149.932C106.162 150.162 104.454 150.427 102.968 149.821C103.104 149.872 102.72 149.692 102.677 149.667C102.53 149.581 102.387 149.487 102.25 149.385C102.327 149.436 102.302 149.385 102.191 149.325L102.003 149.146C102.003 149.146 101.695 148.813 101.772 148.907C101.673 148.77 101.582 148.627 101.499 148.48C101.457 148.408 101.42 148.334 101.388 148.258C101.388 148.351 101.388 148.334 101.388 148.198C101.332 148.045 101.289 147.888 101.26 147.728C101.26 147.941 101.26 147.489 101.26 147.446C101.26 147.403 101.26 147.284 101.26 147.403C101.26 147.318 101.26 147.241 101.311 147.156C101.35 147.035 101.405 146.921 101.473 146.814C101.641 146.538 101.852 146.29 102.097 146.079C102.646 145.58 103.251 145.144 103.899 144.781C105.214 144.03 106.665 143.548 108.169 143.363C108.483 143.355 108.782 143.226 109.005 143.003C109.227 142.781 109.356 142.482 109.364 142.167C109.362 141.851 109.235 141.548 109.012 141.324C108.788 141.1 108.485 140.974 108.169 140.972L108.109 140.997Z" fill="#010101"/>
<path d="M174.098 145.012C176.182 150.367 178.564 155.723 180.255 161.078C180.347 161.384 180.366 161.707 180.311 162.022C180.256 162.337 180.128 162.634 179.939 162.891C179.749 163.148 179.502 163.357 179.218 163.502C178.933 163.647 178.619 163.724 178.299 163.726L170.613 163.786C170.325 163.784 170.04 163.722 169.778 163.603C169.515 163.483 169.281 163.31 169.09 163.094C168.899 162.878 168.755 162.624 168.669 162.349C168.583 162.074 168.556 161.783 168.589 161.497L170.127 145.507C170.178 145.048 170.383 144.619 170.708 144.291C171.033 143.962 171.459 143.752 171.917 143.695C172.376 143.638 172.84 143.737 173.236 143.975C173.631 144.214 173.935 144.579 174.098 145.012Z" fill="#C05929"/>
<path d="M105.402 61.8766L233.408 57.2642L211.264 0.368774H127.965L105.402 61.8766Z" fill="#153A23"/>
<path d="M130.783 235.057C158.34 232.176 186.094 231.651 213.741 233.485C215.269 233.588 215.269 231.196 213.741 231.094C186.094 229.259 158.34 229.785 130.783 232.665C129.263 232.819 129.254 235.228 130.783 235.057Z" fill="#153A23"/>
<path d="M10.3084 390.633C4.96236 387.268 2.23809 380.161 4.44996 374.182C6.66183 368.203 13.6476 364.385 19.9843 365.555V363.257C10.3853 366.46 3.08355 355.203 3.17749 346.832C3.22873 341.92 4.93674 336.727 8.67727 333.379C12.4178 330.031 17.8236 328.801 22.4267 330.816C23.8188 331.44 24.9887 329.373 23.6309 328.749C21.133 327.672 18.394 327.276 15.6933 327.603C12.9927 327.93 10.4272 328.968 8.25881 330.611C3.42515 334.182 1.03394 340.187 0.786281 346.063C0.350739 356.142 9.14698 369.356 20.5906 365.529C21.6154 365.188 21.8375 363.454 20.5906 363.232C13.1693 361.856 5.21856 365.794 2.35764 372.909C-0.503267 380.024 2.61385 388.677 9.07866 392.709C10.3853 393.563 11.5894 391.462 10.2828 390.65L10.3084 390.633Z" fill="#153A23"/>
<path d="M62.377 291.764C60.1414 291.423 58.0502 290.448 56.3507 288.956C54.6513 287.463 53.4145 285.516 52.7865 283.342C51.3433 278.585 53.3331 273.733 57.2274 270.795C65.8955 264.269 77.2965 270.701 78.8251 280.754L79.6791 279.285C76.2119 279.917 73.3083 276.492 73.1289 273.246C72.9496 270.001 75.6311 267.566 78.5177 266.669C85.9133 264.397 91.4814 271.119 93.1126 277.611C93.4884 279.097 95.7942 278.465 95.4184 276.97C94.2399 272.29 91.5754 267.746 87.237 265.362C85.3757 264.34 83.2789 263.823 81.1557 263.864C79.0325 263.904 76.9569 264.5 75.1358 265.593C71.7198 267.737 69.8666 271.726 71.1989 275.672C72.5311 279.618 76.1606 282.352 80.3111 281.591C80.6175 281.507 80.8786 281.306 81.0383 281.031C81.198 280.757 81.2436 280.43 81.1651 280.122C80.7189 277.264 79.5668 274.563 77.813 272.263C76.0593 269.963 73.7595 268.137 71.122 266.951C68.5422 265.833 65.7035 265.45 62.9197 265.845C60.136 266.24 57.5157 267.397 55.3486 269.189C53.1689 270.841 51.5282 273.102 50.6343 275.687C49.7404 278.272 49.6335 281.064 50.327 283.71C51.7874 288.971 56.2196 293.336 61.7109 294.079C63.2139 294.276 63.863 291.978 62.3428 291.773L62.377 291.764Z" fill="#153A23"/>
<path d="M244.083 263.774C255.237 259.435 268.713 269.36 267.816 281.318L269.012 280.122C265.852 279.823 263.632 277.107 262.957 274.143C262.214 270.855 263.64 267.694 266.014 265.439C271.949 259.802 280.788 260.87 288.218 261.895C289.721 262.1 290.37 259.802 288.85 259.588C279.823 258.341 268.474 257.359 262.504 265.901C258.234 271.948 261.035 281.771 269.037 282.522C269.353 282.518 269.655 282.391 269.878 282.167C270.101 281.944 270.229 281.642 270.233 281.327C271.232 267.916 256.014 256.599 243.469 261.476C242.051 262.031 242.666 264.337 244.109 263.782L244.083 263.774Z" fill="#153A23"/>
<path d="M293.009 286.887C296.203 285.136 299.986 287.468 301.549 290.364C303.744 294.37 302.48 299.469 301.455 303.629C301.402 303.832 301.403 304.045 301.459 304.248C301.514 304.451 301.621 304.635 301.769 304.784C301.918 304.932 302.102 305.04 302.305 305.095C302.508 305.15 302.721 305.151 302.924 305.098C311.336 302.535 320.295 311.931 317.442 320.182C316.938 321.643 319.244 322.275 319.74 320.823C323.156 310.821 312.344 299.725 302.267 302.792L303.736 304.261C305.017 299.059 306.298 292.695 302.882 288.032C300.32 284.615 295.734 282.685 291.779 284.846C290.43 285.58 291.634 287.647 292.984 286.904L293.009 286.887Z" fill="#153A23"/>
<path d="M337.426 335.096C341.781 334.6 345.172 338.512 345.377 342.638C345.59 346.977 343.105 351.051 340.381 354.212C335.335 360.018 328.557 364.049 321.046 365.709C319.748 365.999 320.013 368.143 321.362 368.049C326.802 367.69 331.559 372.166 330.611 377.735C330.424 378.869 330.021 379.957 329.424 380.938C328.877 381.793 327.716 382.484 327.28 383.356C326.845 384.227 327.349 385.764 327.468 386.67L328.049 391.18C328.245 392.683 330.611 392.7 330.44 391.18L330.03 388.019C329.919 387.165 329.424 385.688 329.62 384.859C329.868 383.851 330.901 383.082 331.482 382.143C332.873 379.856 333.405 377.15 332.985 374.507C332.046 369.057 326.802 365.299 321.362 365.64L321.687 367.981C331.038 365.871 340.031 360.14 345.052 351.829C347.392 347.959 348.759 343.074 346.888 338.743C345.283 335.01 341.593 332.2 337.426 332.678C335.914 332.858 335.897 335.241 337.426 335.07V335.096Z" fill="#153A23"/>
<path d="M318.928 322.591C323.028 321.036 328.553 320.028 332.285 323.069C334.847 325.145 336.435 329.595 333.993 332.38C332.985 333.533 334.668 335.232 335.701 334.088C338.152 331.269 338.007 327.255 336.213 324.128C334.095 320.413 329.971 318.747 325.82 318.781C323.238 318.839 320.688 319.356 318.288 320.31C316.862 320.857 317.476 323.163 318.92 322.617L318.928 322.591Z" fill="#153A23"/>
<path d="M127.666 260.109C125.792 251.853 127.071 243.195 131.252 235.834C131.397 235.562 131.431 235.245 131.347 234.949C131.263 234.652 131.069 234.4 130.803 234.243C130.538 234.087 130.223 234.039 129.923 234.109C129.623 234.18 129.362 234.363 129.194 234.621C124.705 242.546 123.343 251.863 125.377 260.741C125.727 262.245 128.033 261.596 127.683 260.109H127.666Z" fill="#153A23"/>
<path d="M139.741 256.624C138.954 254.113 138.782 251.449 139.242 248.858C139.701 246.266 140.778 243.824 142.38 241.736C142.536 241.46 142.578 241.134 142.497 240.828C142.415 240.521 142.217 240.258 141.945 240.096C141.668 239.947 141.346 239.909 141.042 239.99C140.739 240.071 140.478 240.265 140.313 240.532C138.544 242.893 137.36 245.64 136.86 248.547C136.359 251.455 136.557 254.44 137.435 257.256C137.905 258.717 140.211 258.111 139.741 256.624Z" fill="#153A23"/>
<path d="M155.412 260.477C156.13 256.206 155.318 251.593 154.729 247.374C154.14 243.154 153.602 238.491 151.953 234.493C151.373 233.084 149.058 233.699 149.648 235.125C151.219 238.935 151.749 243.325 152.329 247.374C152.688 249.808 152.97 252.251 153.123 254.711C153.319 256.414 153.319 258.133 153.123 259.836C152.876 261.339 155.173 261.988 155.429 260.468L155.412 260.477Z" fill="#153A23"/>
<path d="M163.713 239.704C164.174 245.102 163.953 250.538 163.056 255.881C162.799 257.385 165.105 258.034 165.361 256.513C166.313 250.963 166.562 245.316 166.104 239.704C165.976 238.183 163.585 238.175 163.713 239.704Z" fill="#153A23"/>
<path d="M178.12 256.377C179.401 252.361 179.865 248.13 179.487 243.932C179.351 239.742 178.321 235.629 176.463 231.871C175.737 230.513 173.671 231.717 174.405 233.075C176.224 236.492 176.899 240.472 177.121 244.282C177.442 248.152 176.998 252.047 175.814 255.745C175.302 257.197 177.608 257.82 178.12 256.377Z" fill="#153A23"/>
<path d="M184.816 237.765C188.187 243.46 189.351 250.196 188.086 256.693C187.787 258.196 190.093 258.837 190.392 257.325C191.801 250.205 190.546 242.815 186.865 236.56C186.705 236.286 186.443 236.087 186.137 236.006C185.83 235.925 185.504 235.969 185.23 236.129C184.956 236.289 184.756 236.551 184.675 236.857C184.594 237.164 184.639 237.49 184.798 237.765H184.816Z" fill="#153A23"/>
<path d="M213.963 236.569C217.636 242.403 219.223 249.311 218.463 256.163C218.301 257.692 220.692 257.684 220.854 256.163C221.633 248.887 219.939 241.56 216.046 235.364C215.192 234.066 213.16 235.262 213.98 236.569H213.963Z" fill="#153A23"/>
<path d="M205.363 256.368C204.088 253.682 203.456 250.736 203.517 247.764C203.577 244.791 204.329 241.874 205.713 239.242C206.439 237.884 204.381 236.68 203.655 238.038C202.07 241.039 201.212 244.37 201.152 247.763C201.091 251.157 201.828 254.517 203.305 257.573C203.971 258.956 206.029 257.743 205.363 256.368Z" fill="#153A23"/>
<path d="M142.807 266.14C158.099 265.183 173.383 264.147 188.659 263.031C196.225 262.461 203.786 261.892 211.341 261.322C215.116 261.032 218.893 260.747 222.674 260.468C225.577 260.229 228.421 259.956 230.932 258.367C232.221 257.513 231.026 255.471 229.719 256.3C226.696 258.222 222.827 258.068 219.369 258.341L208.975 259.195C201.574 259.765 194.173 260.32 186.771 260.861C172.128 261.92 157.473 262.911 142.807 263.833C141.287 263.927 141.27 266.319 142.807 266.217V266.14Z" fill="#153A23"/>
<path d="M24.9204 328.732C21.6069 326.904 18.3702 323.607 18.5325 319.533C18.6691 316.039 22.5207 312.367 26.0819 313.99C27.0469 314.425 28.4901 313.434 27.7215 312.35C26.543 310.71 25.3645 308.378 26.3551 306.37C27.1323 304.807 29.3783 304.039 30.6252 305.516C31.4365 306.456 32.8968 305.448 32.6235 304.355C31.872 301.399 30.813 295.574 35.3905 295.258C39.7972 294.959 42.0005 299.597 43.5719 302.945C44.1013 304.073 45.7752 303.441 45.8008 302.339L46.0314 293.797C46.0314 292.747 45.6727 290.381 46.9452 289.902C48.3884 289.398 49.7719 291.337 50.5149 292.251C51.4885 293.447 53.1709 291.747 52.2229 290.543C50.4722 288.399 46.7658 285.725 44.4344 288.835C43.3669 290.244 43.7 292.542 43.6487 294.182L43.4267 302.364L45.6556 301.767C43.5462 297.291 39.9765 291.576 34.0924 293.08C28.678 294.455 29.2673 300.836 30.3348 305.038L32.3332 303.876C30.4373 301.681 27.0127 302.117 25.0998 304.09C22.5378 306.78 23.7504 310.974 25.6634 313.639L27.2945 312.008C22.7939 309.958 17.687 313.084 16.4231 317.688C14.9115 323.206 19.1986 328.382 23.7248 330.876C25.0741 331.619 26.2868 329.561 24.929 328.818L24.9204 328.732Z" fill="#153A23"/>
<path d="M95.5465 266.105C96.4083 263.558 98.0117 261.327 100.151 259.698C102.29 258.069 104.867 257.117 107.551 256.964C110.235 256.81 112.903 257.463 115.214 258.838C117.525 260.212 119.371 262.247 120.518 264.679C121.209 266.054 123.267 264.85 122.584 263.475C121.199 260.637 118.999 258.278 116.266 256.697C113.532 255.116 110.39 254.387 107.24 254.601C104.09 254.816 101.076 255.965 98.5823 257.901C96.0886 259.838 94.2289 262.474 93.2407 265.473C92.7283 266.925 95.0427 267.549 95.5465 266.105Z" fill="#153A23"/>
<path d="M143.089 371.039C141.381 368.476 139.852 365.111 141.424 362.104C143.08 358.935 146.394 359.499 148.853 361.318C152.637 364.128 158.914 370.953 155.685 375.924L157.564 375.685C155.728 374.122 155.856 371.414 157.146 369.535C158.615 367.357 161.373 366.495 163.824 366.025C167.872 365.239 174.243 364.513 176.72 368.698C176.879 368.972 177.141 369.172 177.448 369.253C177.755 369.334 178.081 369.289 178.355 369.13C178.629 368.97 178.828 368.708 178.909 368.401C178.99 368.094 178.946 367.768 178.786 367.494C175.439 361.831 166.899 362.574 161.467 364.12C158.435 364.974 155.566 366.682 154.37 369.749C153.328 372.363 153.653 375.489 155.873 377.376C156.005 377.502 156.162 377.596 156.335 377.652C156.507 377.709 156.69 377.726 156.87 377.704C157.05 377.681 157.222 377.618 157.375 377.52C157.527 377.422 157.656 377.291 157.752 377.137C159.913 373.721 158.803 369.894 156.813 366.708C154.729 363.36 151.629 359.687 147.965 358.047C146.437 357.303 144.679 357.185 143.065 357.717C141.45 358.25 140.108 359.392 139.323 360.9C137.299 364.684 138.819 368.903 140.988 372.243C141.842 373.533 143.892 372.337 143.055 371.039H143.089Z" fill="#153A23"/>
<path d="M200.128 300.511C201.162 300.044 202.281 299.796 203.415 299.784C204.549 299.772 205.674 299.995 206.717 300.44C207.761 300.885 208.7 301.541 209.477 302.368C210.254 303.195 210.851 304.174 211.23 305.243C211.597 306.289 211.743 307.4 211.657 308.506C211.597 309.309 211.247 311.154 210.231 311.299C208.933 311.478 209.428 309.727 209.966 309.215C210.841 308.528 211.92 308.152 213.032 308.147C217.302 307.848 221.179 310.872 223.083 314.476C225.492 319.012 225.261 324.513 224.535 329.441C224.313 330.945 226.61 331.594 226.833 330.082C227.687 324.479 227.891 318.423 225.125 313.263C222.921 309.112 218.472 305.755 213.647 305.73C211.495 305.73 208.856 306.362 207.609 308.292C206.567 309.881 206.755 312.35 208.548 313.357C210.581 314.528 212.639 312.871 213.459 311.043C214.318 308.756 214.248 306.223 213.262 303.987C212.739 302.704 211.967 301.537 210.992 300.553C210.016 299.569 208.857 298.787 207.579 298.251C206.301 297.716 204.93 297.437 203.545 297.432C202.159 297.427 200.786 297.696 199.504 298.222C198.095 298.803 198.71 301.117 200.136 300.528L200.128 300.511Z" fill="#153A23"/>
<path d="M110.406 299.981C116.273 301.331 122.567 296.334 122.422 290.27C122.422 288.732 119.997 288.724 120.031 290.27C120.142 294.745 115.376 298.675 111.047 297.675C109.544 297.325 108.912 299.631 110.406 299.981Z" fill="#153A23"/>
<path d="M42.6581 344.577C39.9082 342.424 35.2112 343.8 34.5365 347.421C33.8021 351.359 38.4735 354.348 41.8639 352.546L40.1046 351.837C40.4889 352.888 39.0115 353.913 38.3966 354.622C37.88 355.137 37.4776 355.756 37.2157 356.437C36.9538 357.119 36.8382 357.848 36.8765 358.577C37.1754 361.686 40.1815 363.975 42.6837 365.41C42.9547 365.542 43.2657 365.567 43.5545 365.48C43.8432 365.393 44.0883 365.2 44.2406 364.939C44.3929 364.679 44.4412 364.371 44.3758 364.076C44.3104 363.782 44.1361 363.523 43.8879 363.351C42.1286 362.343 38.4906 360.003 39.3531 357.475C39.7374 356.339 40.8818 355.527 41.6077 354.613C42.0317 354.166 42.3294 353.614 42.4705 353.013C42.6115 352.413 42.5908 351.786 42.4104 351.197C42.357 351.023 42.2654 350.863 42.1424 350.73C42.0195 350.596 41.8682 350.491 41.6996 350.423C41.5311 350.355 41.3495 350.326 41.1681 350.337C40.9867 350.348 40.8101 350.4 40.6512 350.488C39.02 351.342 36.5007 349.719 36.8765 347.823C37.201 346.225 39.652 345.2 40.9672 346.234C42.2823 347.268 43.8708 345.491 42.6752 344.526L42.6581 344.577Z" fill="#153A23"/>
<path d="M254.972 343.432C254.485 347.951 254.323 352.828 256.005 357.159C257.688 361.489 260.916 363.3 265.322 364.359C266.646 364.684 269.046 365.376 269.131 367.135C269.217 368.895 266.928 369.049 265.869 369.698C265.058 370.211 264.365 370.889 263.834 371.688C263.302 372.487 262.946 373.389 262.786 374.336C261.608 379.956 266.441 385.875 263.888 391.154C263.222 392.529 265.288 393.717 265.954 392.358C268.687 386.695 264.46 381.579 264.972 375.848C264.985 375.098 265.155 374.36 265.473 373.681C265.791 373.003 266.249 372.399 266.817 371.91C267.671 371.261 268.858 371.124 269.78 370.543C270.553 370.066 271.124 369.321 271.386 368.451C271.647 367.58 271.58 366.644 271.198 365.82C270.344 363.719 268.397 362.719 266.322 362.173C263.452 361.412 260.933 360.926 259.208 358.278C256.466 354.067 256.842 348.224 257.363 343.458C257.525 341.938 255.134 341.946 254.972 343.458V343.432Z" fill="#153A23"/>
<path d="M90.4567 341.826C92.0171 344.507 92.6843 347.614 92.3619 350.699C92.0395 353.784 90.7441 356.687 88.6632 358.987C88.5368 359.116 88.4413 359.273 88.3838 359.445C88.3264 359.617 88.3085 359.8 88.3315 359.98C88.3545 360.159 88.4177 360.332 88.5166 360.484C88.6154 360.636 88.7473 360.763 88.9024 360.857C94.5473 363.249 95.2989 370.253 94.9316 375.625C94.5046 381.895 93.2834 388.532 96.9215 394.126C97.7755 395.416 99.8251 394.22 98.9881 392.922C94.8462 386.542 97.7669 378.863 97.357 371.842C97.0581 366.657 95.2647 360.977 90.1065 358.799L90.3542 360.669C92.7974 357.989 94.3245 354.601 94.7145 350.996C95.1045 347.39 94.3371 343.754 92.5233 340.614C92.3625 340.339 92.0994 340.141 91.7919 340.06C91.4844 339.98 91.1577 340.026 90.8837 340.187C90.6096 340.347 90.4106 340.611 90.3306 340.918C90.2505 341.226 90.2958 341.552 90.4567 341.826Z" fill="#153A23"/>
</svg>
