<svg width="72" height="70" viewBox="0 0 72 70" fill="none" xmlns="http://www.w3.org/2000/svg">
<path d="M24.923 20.6696C27.2813 17.5801 30.7996 -4.44058 37.1225 1.57315C41.24 5.47634 43.7003 16.4104 47.2314 20.5552C51.5402 25.6026 73.1474 20.4916 71.9364 28.5777C71.095 34.1846 58.972 37.7191 55.7978 42.2071C49.6917 50.8272 60.081 56.7012 59.4309 65.1179C58.7425 73.9413 45.1281 65.0797 40.9851 62.6386C37.5687 60.6297 35.5035 58.6209 31.5518 59.689C24.6935 61.5324 21.1624 69.0719 13.8963 69.9746C6.55364 70.89 14.0875 55.0356 15.1201 52.6072C15.9996 50.5476 19.7219 45.0551 19.1738 42.7666C18.1795 38.6091 9.81707 37.3122 6.3624 36.2061C0.511244 34.3499 -2.96887 28.0438 3.6727 26.9757C11.487 25.7043 21.0859 25.6916 24.923 20.6696Z" fill="#F7BC28"/>
</svg>
